<svg width="12" height="8" viewBox="0 0 12 8" fill="none" xmlns="http://www.w3.org/2000/svg">
<path fill-rule="evenodd" clip-rule="evenodd" d="M5.22702 4.00441L5.22803 4.24047C5.23614 5.17679 5.29258 6.01217 5.38992 6.54158C5.38992 6.55113 5.4961 7.07619 5.56374 7.25096C5.66992 7.50358 5.86192 7.71801 6.10264 7.85386C6.29537 7.9508 6.49755 8 6.70918 8C6.87554 7.99229 7.1499 7.90857 7.34572 7.83839L7.50844 7.77602C8.58625 7.3479 10.6466 5.94896 11.4357 5.09345L11.4938 5.03365L11.7535 4.75344C11.9171 4.53901 12.0037 4.27685 12.0037 3.99486C12.0037 3.74224 11.9266 3.48963 11.7724 3.28548C11.7262 3.21934 11.6519 3.13449 11.5857 3.06279L11.333 2.79826C10.4634 1.91715 8.58043 0.681221 7.60444 0.271709C7.60444 0.262897 6.9979 0.00954654 6.70918 0L6.67064 0C6.22773 0 5.81392 0.252616 5.60228 0.660914C5.54447 0.772535 5.48901 0.991188 5.44683 1.18322L5.37102 1.5458C5.28447 2.12888 5.22702 3.02332 5.22702 4.00441ZM1.00583 2.98777C0.452384 2.98777 0.00366211 3.44087 0.00366211 3.99971C0.00366211 4.55855 0.452384 5.01164 1.00583 5.01164L3.47198 4.79354C3.90616 4.79354 4.25816 4.43885 4.25816 3.99971C4.25816 3.5613 3.90616 3.20587 3.47198 3.20587L1.00583 2.98777Z" fill="black"/>
</svg>
