<svg width="14" height="14" viewBox="0 0 14 14" fill="none" xmlns="http://www.w3.org/2000/svg">
<path d="M6.48751 3.86165V1.18897C6.48751 0.904788 6.71417 0.667969 7.00084 0.667969C7.25751 0.667969 7.47496 0.866963 7.50942 1.11902L7.51417 1.18897V3.86165L10.7008 3.86185C12.2874 3.86185 13.591 5.16116 13.6642 6.78158L13.6674 6.92536V10.2849C13.6674 11.9167 12.4092 13.2561 10.8461 13.3313L10.7074 13.3346L3.29411 13.3346C1.70744 13.3346 0.410166 12.0418 0.337332 10.4155L0.334106 10.2711L0.334106 6.91848C0.334106 5.28671 1.58605 3.94078 3.14877 3.8652L3.28744 3.86185L6.48744 3.86185V8.13011L5.42077 7.02863C5.22077 6.8221 4.89411 6.8221 4.69411 7.02863C4.59411 7.13189 4.54744 7.26958 4.54744 7.40726C4.54744 7.5119 4.57731 7.62095 4.64045 7.71326L4.69411 7.77901L6.63411 9.78923C6.72744 9.89249 6.86077 9.94757 7.00077 9.94757C7.11188 9.94757 7.22299 9.90932 7.31096 9.83681L7.36077 9.78923L9.30077 7.77901C9.50077 7.57249 9.50077 7.23516 9.30077 7.02863C9.11895 6.84087 8.83245 6.82381 8.6316 6.97742L8.57411 7.02863L7.51411 8.13011V3.86185L6.48751 3.86165Z" fill="black"/>
</svg>
