<svg width="14" height="14" viewBox="0 0 14 14" fill="none" xmlns="http://www.w3.org/2000/svg">
<path d="M5.0936 12.8476V10.8091C5.0936 10.2887 5.51853 9.8669 6.0427 9.8669L7.95882 9.8669C8.21054 9.8669 8.45195 9.96617 8.62994 10.1429C8.80793 10.3196 8.90792 10.5592 8.90792 10.8091V12.8476C8.90633 13.0639 8.99179 13.272 9.14533 13.4255C9.29886 13.579 9.50778 13.6654 9.72571 13.6654H11.033C11.6435 13.6669 12.2296 13.4273 12.6619 12.9992C13.0941 12.5712 13.3371 11.99 13.3371 11.3839V5.5766C13.3371 5.08701 13.1185 4.62259 12.7402 4.30848L8.2931 0.782611C7.51952 0.164406 6.41115 0.184366 5.66067 0.830017L1.31509 4.30848C0.918904 4.61333 0.682112 5.07912 0.67041 5.5766V11.378C0.67041 12.6413 1.702 13.6654 2.97453 13.6654H4.25194C4.70456 13.6654 5.07241 13.3028 5.07569 12.8535L5.0936 12.8476Z" fill="black"/>
</svg>
