<svg width="8" height="20" viewBox="0 0 8 20" fill="none" xmlns="http://www.w3.org/2000/svg">
<path d="M3.99713 19.756C3.03713 19.756 2.24779 19.4787 1.62913 18.924C1.03179 18.348 0.733125 17.644 0.733125 16.812C0.733125 15.9587 1.03179 15.244 1.62913 14.668C2.24779 14.092 3.03713 13.804 3.99713 13.804C4.93579 13.804 5.70379 14.092 6.30113 14.668C6.91979 15.244 7.22913 15.9587 7.22913 16.812C7.22913 17.644 6.91979 18.348 6.30113 18.924C5.70379 19.4787 4.93579 19.756 3.99713 19.756ZM3.99713 6.732C3.03713 6.732 2.24779 6.45467 1.62913 5.9C1.03179 5.324 0.733125 4.62 0.733125 3.788C0.733125 2.93467 1.03179 2.22 1.62913 1.644C2.24779 1.068 3.03713 0.779999 3.99713 0.779999C4.93579 0.779999 5.70379 1.068 6.30113 1.644C6.91979 2.22 7.22913 2.93467 7.22913 3.788C7.22913 4.62 6.91979 5.324 6.30113 5.9C5.70379 6.45467 4.93579 6.732 3.99713 6.732Z" fill="#0C8CE9"/>
</svg>
