<svg width="16" height="17" viewBox="0 0 16 17" fill="none" xmlns="http://www.w3.org/2000/svg">
<circle cx="8" cy="9" r="8" fill="#0C8CE9"/>
<path d="M5.47642 8.572C5.47642 7.196 5.70042 6.124 6.14842 5.356C6.59642 4.58 7.38042 4.192 8.50042 4.192C9.61242 4.192 10.3924 4.58 10.8404 5.356C11.2884 6.124 11.5124 7.196 11.5124 8.572C11.5124 9.972 11.2884 11.06 10.8404 11.836C10.3924 12.612 9.61242 13 8.50042 13C7.38042 13 6.59642 12.612 6.14842 11.836C5.70042 11.06 5.47642 9.972 5.47642 8.572ZM10.4324 8.572C10.4324 7.876 10.3844 7.288 10.2884 6.808C10.2004 6.32 10.0124 5.928 9.72442 5.632C9.44442 5.336 9.03642 5.188 8.50042 5.188C7.95642 5.188 7.54042 5.336 7.25242 5.632C6.97242 5.928 6.78442 6.32 6.68842 6.808C6.60042 7.288 6.55642 7.876 6.55642 8.572C6.55642 9.292 6.60042 9.896 6.68842 10.384C6.78442 10.872 6.97242 11.264 7.25242 11.56C7.54042 11.856 7.95642 12.004 8.50042 12.004C9.03642 12.004 9.44442 11.856 9.72442 11.56C10.0124 11.264 10.2004 10.872 10.2884 10.384C10.3844 9.896 10.4324 9.292 10.4324 8.572Z" fill="#FAFAFA"/>
</svg>
